<?xml version="1.0" encoding="utf-8"?>
<!-- Generator: Adobe Illustrator 27.9.0, SVG Export Plug-In . SVG Version: 6.00 Build 0)  -->
<svg version="1.1" id="Layer_1" xmlns="http://www.w3.org/2000/svg" xmlns:xlink="http://www.w3.org/1999/xlink" x="0px" y="0px"
	 viewBox="0 0 400 520" style="enable-background:new 0 0 400 520;" xml:space="preserve">
<style type="text/css">
	.st0{fill:none;}
	.st1{fill:#489ACC;}
</style>
<rect class="st0" width="40" height="40"/>
<rect x="280" class="st0" width="40" height="40"/>
<rect x="320" class="st0" width="40" height="40"/>
<rect x="360" class="st0" width="40" height="40"/>
<rect x="40" y="40" class="st0" width="40" height="40"/>
<rect x="80" y="40" class="st0" width="40" height="40"/>
<rect x="120" y="40" class="st0" width="40" height="40"/>
<rect x="160" y="40" class="st0" width="40" height="40"/>
<rect x="240" y="40" class="st0" width="40" height="40"/>
<rect x="280" y="40" class="st1" width="40" height="40"/>
<rect x="320" y="40" class="st0" width="40" height="40"/>
<rect x="360" y="40" class="st0" width="40" height="40"/>
<rect x="40" y="80" class="st0" width="40" height="40"/>
<rect x="80" y="80" class="st0" width="40" height="40"/>
<rect x="120" y="80" class="st0" width="40" height="40"/>
<rect x="160" y="80" class="st0" width="40" height="40"/>
<rect x="240" y="80" class="st0" width="40" height="40"/>
<rect x="280" y="80" class="st0" width="40" height="40"/>
<rect x="320" y="80" class="st1" width="40" height="40"/>
<rect x="360" y="80" class="st0" width="40" height="40"/>
<rect x="40" y="120" class="st0" width="40" height="40"/>
<rect x="240" y="120" class="st0" width="40" height="40"/>
<rect x="280" y="120" class="st0" width="40" height="40"/>
<rect x="320" y="120" class="st0" width="40" height="40"/>
<rect x="40" y="160" class="st0" width="40" height="40"/>
<rect x="80" y="160" class="st0" width="40" height="40"/>
<rect x="120" y="160" class="st0" width="40" height="40"/>
<rect x="160" y="160" class="st0" width="40" height="40"/>
<rect x="40" y="200" class="st0" width="40" height="40"/>
<rect x="80" y="200" class="st0" width="40" height="40"/>
<rect x="120" y="200" class="st0" width="40" height="40"/>
<rect x="160" y="200" class="st0" width="40" height="40"/>
<rect x="200" y="200" class="st0" width="40" height="40"/>
<rect x="240" y="200" class="st0" width="40" height="40"/>
<rect x="280" y="200" class="st0" width="40" height="40"/>
<rect x="320" y="200" class="st0" width="40" height="40"/>
<rect x="40" y="240" class="st0" width="40" height="40"/>
<polygon class="st1" points="120,240 80,240 80,280 120,280 160,280 160,240 "/>
<rect x="160" y="240" class="st0" width="40" height="40"/>
<polygon class="st1" points="280,240 240,240 200,240 200,280 240,280 280,280 320,280 320,240 "/>
<rect x="320" y="240" class="st0" width="40" height="40"/>
<rect x="40" y="280" class="st0" width="40" height="40"/>
<rect x="80" y="280" class="st0" width="40" height="40"/>
<rect x="120" y="280" class="st0" width="40" height="40"/>
<rect x="160" y="280" class="st0" width="40" height="40"/>
<rect x="200" y="280" class="st0" width="40" height="40"/>
<rect x="240" y="280" class="st0" width="40" height="40"/>
<rect x="280" y="280" class="st0" width="40" height="40"/>
<rect x="320" y="280" class="st0" width="40" height="40"/>
<rect x="40" y="320" class="st0" width="40" height="40"/>
<rect x="80" y="320" class="st0" width="40" height="40"/>
<rect x="120" y="320" class="st0" width="40" height="40"/>
<rect x="160" y="320" class="st0" width="40" height="40"/>
<rect x="200" y="320" class="st0" width="40" height="40"/>
<rect x="240" y="320" class="st0" width="40" height="40"/>
<rect x="280" y="320" class="st0" width="40" height="40"/>
<rect x="320" y="320" class="st0" width="40" height="40"/>
<rect x="40" y="360" class="st0" width="40" height="40"/>
<polygon class="st1" points="240,360 200,360 160,360 120,360 80,360 80,400 120,400 160,400 200,400 240,400 280,400 280,360 "/>
<rect x="280" y="360" class="st0" width="40" height="40"/>
<rect x="320" y="360" class="st0" width="40" height="40"/>
<rect x="40" y="400" class="st0" width="40" height="40"/>
<rect x="80" y="400" class="st0" width="40" height="40"/>
<rect x="120" y="400" class="st0" width="40" height="40"/>
<rect x="160" y="400" class="st0" width="40" height="40"/>
<rect x="200" y="400" class="st0" width="40" height="40"/>
<rect x="240" y="400" class="st0" width="40" height="40"/>
<rect x="280" y="400" class="st0" width="40" height="40"/>
<rect x="320" y="400" class="st0" width="40" height="40"/>
<polygon class="st1" points="0,40 0,80 0,120 0,160 0,200 0,240 0,280 0,320 0,360 0,400 0,440 0,480 40,480 40,440 40,400 40,360 
	40,320 40,280 40,240 40,200 40,160 40,120 40,80 40,40 "/>
<rect x="40" y="440" class="st0" width="40" height="40"/>
<rect x="80" y="440" class="st0" width="40" height="40"/>
<rect x="120" y="440" class="st0" width="40" height="40"/>
<rect x="160" y="440" class="st0" width="40" height="40"/>
<rect x="200" y="440" class="st0" width="40" height="40"/>
<rect x="240" y="440" class="st0" width="40" height="40"/>
<rect x="280" y="440" class="st0" width="40" height="40"/>
<rect x="320" y="440" class="st0" width="40" height="40"/>
<polygon class="st1" points="360,120 360,160 320,160 280,160 240,160 240,120 240,80 240,40 280,40 280,0 240,0 200,0 160,0 120,0 
	80,0 40,0 40,40 80,40 120,40 160,40 200,40 200,80 200,120 160,120 120,120 80,120 80,160 120,160 160,160 200,160 200,200 
	240,200 280,200 320,200 360,200 360,240 360,280 360,320 360,360 360,400 360,440 360,480 400,480 400,440 400,400 400,360 
	400,320 400,280 400,240 400,200 400,160 400,120 "/>
<rect y="480" class="st0" width="40" height="40"/>
<polygon class="st1" points="320,480 280,480 240,480 200,480 160,480 120,480 80,480 40,480 40,520 80,520 120,520 160,520 
	200,520 240,520 280,520 320,520 360,520 360,480 "/>
<rect x="360" y="480" class="st0" width="40" height="40"/>
</svg>
