<?xml version="1.0" encoding="utf-8"?>
<!-- Generator: Adobe Illustrator 27.9.0, SVG Export Plug-In . SVG Version: 6.00 Build 0)  -->
<svg version="1.1" id="Layer_1" xmlns="http://www.w3.org/2000/svg" xmlns:xlink="http://www.w3.org/1999/xlink" x="0px" y="0px"
	 viewBox="0 0 415.9 531.2" style="enable-background:new 0 0 415.9 531.2;" xml:space="preserve">
<style type="text/css">
	.st0{fill:none;stroke:#489ACC;stroke-width:40;stroke-linecap:round;stroke-linejoin:round;stroke-miterlimit:10;}
	.st1{fill:#FFFFFF;stroke:#489ACC;stroke-width:40;stroke-linecap:square;stroke-linejoin:round;stroke-miterlimit:10;}
</style>
<path class="st0" d="M375.8,511.2H40.1c-11.1,0-20.1-9-20.1-20.1V40.1C20,29,29,20,40.1,20h182.54L395.9,193.26v297.84
	C395.9,502.2,386.9,511.2,375.8,511.2z"/>
<line class="st0" x1="102.12" y1="146.43" x2="330.59" y2="146.43"/>
<path class="st1" d="M395.9,193.26H252.39c-16.43,0-29.75-13.32-29.75-29.75V20l86.63,86.63L395.9,193.26z"/>
<path class="st0" d="M268.93,184.9"/>
<path class="st0" d="M82.12,184.9"/>
<line class="st0" x1="262.2" y1="274.15" x2="309.67" y2="274.15"/>
<line class="st0" x1="102.2" y1="394.46" x2="289.67" y2="394.46"/>
<line class="st0" x1="102.2" y1="274.15" x2="179.67" y2="274.15"/>
</svg>
