<svg id="Layer_1" data-name="Layer 1" xmlns="http://www.w3.org/2000/svg" viewBox="0 0 632.01 700"><defs><style>.cls-1{fill:none;stroke:#000;stroke-miterlimit:10;stroke-width:5px;fill-rule:evenodd;}</style></defs><path class="cls-1" d="M225.67,676.93c0-18.34-.57-46.21-.57-84C111.84,613.81,82.53,565.35,73.52,540c-5.07-13-27-53-46.21-63.68C11.53,467.86-11,447,26.75,446.45c35.5-.57,60.85,32.68,69.31,46.21,40.57,68.18,105.37,49,131.3,37.19,3.94-29.3,15.77-49,28.74-60.3C155.79,458.28,51,419.4,51,247c0-49,17.47-89.6,46.2-121.15-4.5-11.27-20.28-57.48,4.51-119.47,0,0,37.76-11.83,124,46.21a425.14,425.14,0,0,1,225.4,0c86.22-58.6,124-46.21,124-46.21,24.79,62,9,108.2,4.5,119.47,28.74,31.55,46.21,71.56,46.21,121.15,0,173-105.38,211.32-205.68,222.59,16.34,14.09,30.43,41.14,30.43,83.4,0,60.3-.57,97.46-.57,124C429.94,698,248.47,696.52,225.67,676.93Z"/></svg>